/* XPM */
static char *_c9e2df2148647fae85488e719c6f506[] = {
/* columns rows colors chars-per-pixel */
"32 32 210 2 ",
"   c #3A2E0A",
".  c #5A3F00",
"X  c #403414",
"o  c #403619",
"O  c #4E411A",
"+  c #514317",
"@  c #664D00",
"#  c #6A4F00",
"$  c #6C5204",
"%  c #6C530F",
"&  c #795E0F",
"*  c #695411",
"=  c #775C10",
"-  c #765F1B",
";  c #7D600E",
":  c #7D6212",
">  c #77601B",
",  c #7D641B",
"<  c #635322",
"1  c #6A5924",
"2  c #705E26",
"3  c #715F28",
"4  c #766226",
"5  c #7A6524",
"6  c #76642C",
"7  c #7D6728",
"8  c #786732",
"9  c #7C6B34",
"0  c #7C6C39",
"q  c #766A42",
"w  c #7A6F48",
"e  c #7D714F",
"r  c #84650D",
"t  c #836A1E",
"y  c #896D1B",
"u  c #8D731A",
"i  c #927515",
"p  c #836B24",
"a  c #886F24",
"s  c #846E2A",
"d  c #8C7224",
"f  c #86702C",
"g  c #8C742C",
"h  c #927623",
"j  c #947A27",
"k  c #9A7F20",
"l  c #91772B",
"z  c #937A2B",
"x  c #9A7E2A",
"c  c #816E33",
"v  c #816F38",
"b  c #867234",
"n  c #8B7532",
"m  c #8E7834",
"M  c #83743C",
"N  c #8A763A",
"B  c #8D793B",
"V  c #957D32",
"C  c #987E30",
"Z  c #927D3B",
"A  c #827444",
"S  c #867947",
"D  c #8B7B43",
"F  c #917F43",
"G  c #9C8126",
"H  c #9C832E",
"J  c #9C8233",
"K  c #97813C",
"L  c #9B833A",
"P  c #A48628",
"I  c #A28731",
"U  c #A48935",
"Y  c #AA8D34",
"T  c #A48A3B",
"R  c #AB8F3D",
"E  c #AC913C",
"W  c #B1953D",
"Q  c #BA9C3C",
"!  c #C8A73F",
"~  c #968245",
"^  c #9B8643",
"/  c #9F8A45",
"(  c #99874E",
")  c #9D8A4B",
"_  c #9D8D54",
"`  c #A48C42",
"'  c #A88E41",
"]  c #A38D4B",
"[  c #A79046",
"{  c #AC9343",
"}  c #A6914B",
"|  c #AB944A",
" . c #AD984C",
".. c #B19643",
"X. c #B59A45",
"o. c #B0974D",
"O. c #B39B4C",
"+. c #B99F4C",
"@. c #A59354",
"#. c #AA9552",
"$. c #A3935E",
"%. c #AC9659",
"&. c #AB995C",
"*. c #B49D54",
"=. c #B39E5B",
"-. c #BEA34C",
";. c #B5A055",
":. c #BCA353",
">. c #B6A15A",
",. c #BCA55B",
"<. c #BFA85C",
"1. c #999362",
"2. c #A59661",
"3. c #A89764",
"4. c #AE9C6A",
"5. c #B09E66",
"6. c #B4A367",
"7. c #BBA662",
"8. c #BEAB66",
"9. c #BDAA6B",
"0. c #A7A57C",
"q. c #B6A677",
"w. c #B5AB75",
"e. c #C2A64F",
"r. c #C4AA4F",
"t. c #C3A955",
"y. c #C2AB5B",
"u. c #C8AF5C",
"i. c #CAB15E",
"p. c #D6B855",
"a. c #DEBF5B",
"s. c #C1AB62",
"d. c #C1AD6E",
"f. c #C6B265",
"g. c #CDB667",
"h. c #CAB66B",
"j. c #CEB96C",
"k. c #D1B766",
"l. c #D5BE64",
"z. c #C5B372",
"x. c #C8B575",
"c. c #CDBC76",
"v. c #CAB87B",
"b. c #D2BF75",
"n. c #DCC576",
"m. c #D2C27F",
"M. c #DBC679",
"N. c #DAC87B",
"B. c #DFD17F",
"V. c #E1C464",
"C. c #E0CD7A",
"Z. c #EED276",
"A. c #F5DE7E",
"S. c #BEB688",
"D. c #BFB592",
"F. c #C9BD8B",
"G. c #CFC082",
"H. c #CFC38E",
"J. c #D5C683",
"K. c #D5C983",
"L. c #DBCB84",
"P. c #D6C68F",
"I. c #DACD8C",
"U. c #CDC091",
"Y. c #CDC69E",
"T. c #D0C399",
"R. c #D1C999",
"E. c #DACC9B",
"W. c #E1CE80",
"Q. c #E0D484",
"!. c #E2D38D",
"~. c #E8D589",
"^. c #E8D889",
"/. c #F1DE8E",
"(. c #E2D491",
"). c #E4D996",
"_. c #EADB96",
"`. c #E2D79B",
"'. c #E4DA9A",
"]. c #EADD9B",
"[. c #F1E094",
"{. c #F5E79E",
"}. c #F2E99F",
"|. c #D3C8A7",
" X c #D6D3AC",
".X c #D0CABC",
"XX c #E1DCBD",
"oX c #E5E3AC",
"OX c #ECE1AD",
"+X c #F9EFA3",
"@X c #F9EEA8",
"#X c #FBF6AC",
"$X c #E6E2B6",
"%X c #F0E4BC",
"&X c #FFF7B2",
"*X c #FFFDB3",
"=X c #D8D2C9",
"-X c #EDE6C3",
";X c #EDE9C3",
":X c #FFFFC4",
">X c #F6F5C9",
",X c #FDFDCF",
"<X c #E7E3D8",
"1X c #FFFED3",
"2X c #FFFFDF",
"3X c #F0EDE5",
"4X c #F3F0E0",
"5X c #FDFCF2",
"6X c gray100",
"7X c None",
/* pixels */
"7X7X7X7X7X7X7X7X7X7X7X7X7X7X7X7X7X7X7X7X7X7X7X7X7X7X7X7X7X7X7X7X",
"7X7X7X7X7X7X7X7X7X7X7X7X7X7X7X7X7X7X7X7X7X7X7X7X7X7X7X7X7X7X7X7X",
"7X7X7X7X7X7X7X7X7X7X7X7X7X%XE.P.OX2X7X7X7X7X7X7X7X7X7X7X7X7X7X7X",
"7X7X7X7X7X7X7X7X7X7X,Xz.p @ . @ t H f.'.>X7X7X7X7X7X7X7X7X7X7X7X",
"7X7X7X7X7X7X7X7X7XoXj $ 5 l g g j C x Y -.Q.,X7X7X7X7X7X7X7X7X7X",
"7X7X7X7X7X7X7X6XD.j 9.^.f.#.O.~ Z L } &.,.t.l.}.7X7X7X7X7X7X7X7X",
"7X7X7X7X7X7X6X4.G E.T.`.#.&.L L n j D D E $.>.r.A.7X7X7X7X7X7X7X",
"7X7X7X7X7X6Xq.k 6X<Xt w.S.~ } ` L b A J K w <.:.U a.7X7X7X7X7X7X",
"7X7X7X7X7XH.h 5X3X|.U.3.R.L.m.f.O.R I Z S / +.;.L P k.7X7X7X7X7X",
"7X7X7X7X].u ;X4Xi T.=X X+X{.!.L.g.e.+...C { ..~ ' J e.e 7X7X7X7X",
"7X7X7X7Xj ) 1X:.o..XXX:X[.(.L.L.b.y.+.+.e.' } T L K H ..7X7X7X7X",
"7X7X7X*.% G.C.h F.;X:X/.(.K.L.!.L.g.y.t.e.t.{ R Z d V Q 7X7X7X7X",
"7X7X7Xt 4 M.O.| K.&X_.P.K.L.`.).`._.M.c.s.<.,.T L d m E 8 7X7X7X",
"7X7X7Xd N e.` #.L.h.| | ) m.| K m $.I.` } *.#.` J n z V s 7X7X7X",
"7X7XM p N X.[ } j.Y ] z.G.^.r $.g.& z.Y ) d.:.' C f d T p 7X7X7X",
"7X7XB f ] E ^ T <.:.#.=.5.J.G F ` V I.E ` ) *.X.d s , m s 7X7X7X",
"7X7X_ T Z +.` L :.7.&.*.h } x ) c.p 6.Y ] 9.:...a f , l 7 7X7X7X",
"7X7X7XN.^ t.L Z O.=.%.| C O.L F ] d ;...~ *.] Z l > y Z 3 7X7X7X",
"7X7X7XOX7.j.{ ) T O.| | o.,.>.O. .8.h.,.;...o.d l t - n 1 7X7X7X",
"7X7X7X$Xx.n.O.L ^ X.W R ..X.O.:.y.u.:.:.+.t.R C g = c U o 7X7X7X",
"7X7X7X0.@X9.C.V ~ | ..U U I C U U R R U ..{ d n p y K J 7X7X7X7X",
"7X7X7X7X*Xv.(.s.V ) ^ U U j l h j j H Y I > V l = b X.1 7X7X7X7X",
"7X7X7X7X1.*X9._.T m ~ K V J d d h j C g 4 J g t d ) W 7X7X7X7X7X",
"7X7X7X7X7X}.].8.n.x m ) b s t t f f 7 s C b d h ( p.X 7X7X7X7X7X",
"7X7X7X7X7X7X#X_.o.+.J p N m s 0 > 4 h s p d z @.V.< 7X7X7X7X7X7X",
"7X7X7X7X7X7X7XB.n.] H H d ; M q 2 3 y t p L d.Z.3 7X7X7X7X7X7X7X",
"7X7X7X7X7X7X7X7X^ l.y.] d y , * - : y K <.g.i.O 7X7X7X7X7X7X7X7X",
"7X7X7X7X7X7X7X7X7X  V O.;.| T T ` [ ;.:.| 1 7X7X7X7X7X7X7X7X7X7X",
"7X7X7X7X7X7X7X7X7X7X7X7X+ 6 v 0 v 9 <   7X7X7X7X7X7X7X7X7X7X7X7X",
"7X7X7X7X7X7X7X7X7X7X7X7X7X7X7X7X7X7X7X7X7X7X7X7X7X7X7X7X7X7X7X7X",
"7X7X7X7X7X7X7X7X7X7X7X7X7X7X7X7X7X7X7X7X7X7X7X7X7X7X7X7X7X7X7X7X",
"7X7X7X7X7X7X7X7X7X7X7X7X7X7X7X7X7X7X7X7X7X7X7X7X7X7X7X7X7X7X7X7X"
};
