/* XPM */
static char *c0f1e916a848461e94316de1bab7b71e[] = {
/* columns rows colors chars-per-pixel */
"64 64 256 2 ",
"   c #00010B",
".  c #000004",
"X  c #171819",
"o  c #0C0D14",
"O  c #362B0E",
"+  c #272314",
"@  c #2F270F",
"#  c #343125",
"$  c #4A3908",
"%  c #463A16",
"&  c #483F25",
"*  c #53420C",
"=  c #594814",
"-  c #6C530C",
";  c #7A5B03",
":  c #735A0E",
">  c #765908",
",  c #624E14",
"<  c #6C5513",
"1  c #64521C",
"2  c #6A551A",
"3  c #6C571A",
"4  c #745C14",
"5  c #745D1B",
"6  c #795E13",
"7  c #654E0B",
"8  c #7C6214",
"9  c #7B641D",
"0  c #7E610C",
"q  c #4A422B",
"w  c #5A4F2B",
"e  c #6D5A24",
"r  c #695726",
"t  c #725E23",
"y  c #705E2A",
"u  c #6C5D34",
"i  c #766224",
"p  c #7B6523",
"a  c #75622B",
"s  c #7A662C",
"d  c #7D692C",
"f  c #7F6821",
"g  c #736332",
"h  c #7C6A33",
"j  c #776839",
"k  c #6F6235",
"l  c #796C45",
"z  c #7D724C",
"x  c #776F51",
"c  c #595241",
"v  c #85660B",
"b  c #856A15",
"n  c #8A6D14",
"m  c #846A1C",
"M  c #8A6E1B",
"N  c #80671A",
"B  c #8D711C",
"V  c #8F7116",
"C  c #92741C",
"Z  c #98791B",
"A  c #846C24",
"S  c #836D2B",
"D  c #876B20",
"F  c #8C7324",
"G  c #8B742C",
"H  c #8A732C",
"J  c #927624",
"K  c #957924",
"L  c #9A7C23",
"P  c #91772A",
"I  c #947B2B",
"U  c #997E2B",
"Y  c #826E33",
"T  c #836F38",
"R  c #837135",
"E  c #8B7533",
"W  c #84723B",
"Q  c #89753A",
"!  c #8D7A3C",
"~  c #8E7932",
"^  c #947C33",
"/  c #987F31",
"(  c #937D3B",
")  c #8B7943",
"_  c #8B7B4A",
"`  c #867745",
"'  c #927E42",
"]  c #927F4A",
"[  c #857A55",
"{  c #857D63",
"}  c #A5831C",
"|  c #9D812D",
" . c #9D8126",
".. c #9C8333",
"X. c #95813E",
"o. c #9B843C",
"O. c #9E883B",
"+. c #A2842C",
"@. c #A5882D",
"#. c #A88928",
"$. c #B9962B",
"%. c #A18633",
"&. c #A48935",
"*. c #AA8D34",
"=. c #A08739",
"-. c #A48A3B",
";. c #A98E3C",
":. c #AC923D",
">. c #B29435",
",. c #BB9B35",
"<. c #B2953B",
"1. c #B6993D",
"2. c #B38F21",
"3. c #BCA13E",
"4. c #C6A237",
"5. c #C19D30",
"6. c #958245",
"7. c #9A8543",
"8. c #9D8944",
"9. c #94824C",
"0. c #9A864B",
"q. c #9D8A4C",
"w. c #948454",
"e. c #9C8A53",
"r. c #988958",
"t. c #928554",
"y. c #A38C43",
"u. c #A28D4B",
"i. c #A98F42",
"p. c #AC9343",
"a. c #A6914C",
"s. c #AB944B",
"d. c #AB9549",
"f. c #B19644",
"g. c #B49944",
"h. c #B99C43",
"j. c #B49B4B",
"k. c #B99E4C",
"l. c #A28F52",
"z. c #A59353",
"x. c #A99554",
"c. c #AE9954",
"v. c #A4945B",
"b. c #AD9B5B",
"n. c #A9985A",
"m. c #B49D52",
"M. c #B29E5A",
"N. c #B99F50",
"B. c #BBA14D",
"V. c #B7A04C",
"C. c #BCA454",
"Z. c #B4A15C",
"A. c #BBA55B",
"S. c #BBA65A",
"D. c #AEA05E",
"F. c #9D9168",
"G. c #9B916F",
"H. c #A89863",
"J. c #AA9D6D",
"K. c #AEA166",
"L. c #B4A263",
"P. c #BAA762",
"I. c #BCAA63",
"U. c #B2A26B",
"Y. c #BDAC6D",
"T. c #B7A878",
"R. c #B7AE72",
"E. c #C1A54C",
"W. c #C6A849",
"Q. c #C1A653",
"!. c #C3A955",
"~. c #C3AB5B",
"^. c #C9AD56",
"/. c #CCB35C",
"(. c #CFB257",
"). c #D6BA5A",
"_. c #D5B44D",
"`. c #E0BE50",
"'. c #C3AD62",
"]. c #C1AE6B",
"[. c #C5B166",
"{. c #CBB464",
"}. c #CAB569",
"|. c #CDB96E",
" X c #C8B468",
".X c #D2BC6B",
"XX c #D5BC68",
"oX c #C3B373",
"OX c #CDBB71",
"+X c #CBBC7C",
"@X c #C6B578",
"#X c #D1BE75",
"$X c #D1BF7B",
"%X c #DCC26A",
"&X c #D5C47D",
"*X c #D9C67C",
"=X c #DCC97C",
"-X c #D8C475",
";X c #ECD77D",
":X c #FBE078",
">X c #B3AC8D",
",X c #BDB7A9",
"<X c #C8BA85",
"1X c #C2B793",
"2X c #C2B9A6",
"3X c #CEC287",
"4X c #DBCB85",
"5X c #DCCD8A",
"6X c #D6C785",
"7X c #DFD08A",
"8X c #CEC393",
"9X c #CCC39F",
"0X c #DACC93",
"qX c #D7CA97",
"wX c #DED297",
"eX c #E2D38D",
"rX c #E9D988",
"tX c #E4D693",
"yX c #EBDC95",
"uX c #ECDD9A",
"iX c #E6D894",
"pX c #EDD990",
"aX c #F1E18F",
"sX c #F3E49B",
"dX c #F7E696",
"fX c #FEF89C",
"gX c #EDE09C",
"hX c #DDD4A4",
"jX c #D9D2B9",
"kX c #D5CDAE",
"lX c #E5D9A8",
"zX c #E4DBB8",
"xX c #ECE2A9",
"cX c #F2E6A6",
"vX c #FBECA3",
"bX c #F5EAA8",
"nX c #FFFDAA",
"mX c #FDF2A8",
"MX c #EBE4B8",
"NX c #F4EBB8",
"BX c #FEFDBD",
"VX c #FDF8B6",
"CX c #E1DBC9",
"ZX c #FFFBC6",
"AX c #ECE8D7",
"SX c #F1ECD6",
"DX c #FFFFDA",
"FX c #FCF9D7",
"GX c #EFE8C4",
"HX c #FCFCE3",
"JX c #FAF8E9",
"KX c #FEFDF3",
"LX c gray100",
"PX c #EAE9E5",
"IX c #DAD6C3",
"UX c None",
/* pixels */
"UXUXUXUXUXUXUXUXUXUXUXUXUXUXUXUXUXUXUXUXUXUXUXUXUXUXUXUXUXUXUXUXUXUXUXUXUXUXUXUXUXUXUXUXUXUXUXUXUXUXUXUXUXUXUXUXUXUXUXUXUXUXUXUX",
"UXUXUXUXUXUXUXUXUXUXUXUXUXUXUXUXUXUXUXUXUXUXUXUXUXUXUXUXUXUXUXUXUXUXUXUXUXUXUXUXUXUXUXUXUXUXUXUXUXUXUXUXUXUXUXUXUXUXUXUXUXUXUXUX",
"UXUXUXUXUXUXUXUXUXUXUXUXUXUXUXUXUXUXUXUXUXUXUXUXUXUXUXUXUXUXUXUXUXUXUXUXUXUXUXUXUXUXUXUXUXUXUXUXUXUXUXUXUXUXUXUXUXUXUXUXUXUXUXUX",
"UXUXUXUXUXUXUXUXUXUXUXUXUXUXUXUXUXUXUXUXUXUXUXUXUXUXUXUXUXUXUXUXUXUXUXUXUXUXUXUXUXUXUXUXUXUXUXUXUXUXUXUXUXUXUXUXUXUXUXUXUXUXUXUX",
"UXUXUXUXUXUXUXUXUXUXUXUXUXUXUXUXUXUXUXUXUXUXUXUXUXUXUXUXUXUXAXAXSXUXUXUXUXUXUXUXUXUXUXUXUXUXUXUXUXUXUXUXUXUXUXUXUXUXUXUXUXUXUXUX",
"UXUXUXUXUXUXUXUXUXUXUXUXUXUXUXUXUXUXUXUXUXUXUXUXUXGXhX6X X~.^.XX=XyXcXVXFXJXUXUXUXUXUXUXUXUXUXUXUXUXUXUXUXUXUXUXUXUXUXUXUXUXUXUX",
"UXUXUXUXUXUXUXUXUXUXUXUXUXUXUXUXUXUXUXUXUXUXMX6X/.,.} n : 4 5 9 G 7.c.OXaXmXBXZXSXUXUXUXUXUXUXUXUXUXUXUXUXUXUXUXUXUXUXUXUXUXUXUX",
"UXUXUXUXUXUXUXUXUXUXUXUXUXUXUXUXUXUXUXUXMXrX).>.A = $ * * $ = , , 7 4 p ~ s.I.rXnXBXGXUXUXUXUXUXUXUXUXUXUXUXUXUXUXUXUXUXUXUXUXUX",
"UXUXUXUXUXUXUXUXUXUXUXUXUXUXUXUXUXUXZXvXrXZ.a * $ e A J K U L +.%.+.*.;.| | / o.c.&XfXVXMXUXUXUXUXUXUXUXUXUXUXUXUXUXUXUXUXUXUXUX",
"UXUXUXUXUXUXUXUXUXUXUXUXUXUXUXUXKXDXZX3Xh 7 9 ..k.E.h.&.=.=.7.%./ p.j.d.j.h.B.C.f.O.Z.4XfXBXCXUXUXUXUXUXUXUXUXUXUXUXUXUXUXUXUXUX",
"UXUXUXUXUXUXUXUXUXUXUXUXUXUXUXKXLXJXv.- I {.-XOX#XP.e.A.W.;.z 0.,.T ) h.c.e.c.^.I.[.S.N.oXaXfXSXUXUXUXUXUXUXUXUXUXUXUXUXUXUXUXUX",
"UXUXUXUXUXUXUXUXUXUXUXUXUXUXKXLXjXp b }.eXgXeXuX X) 9.{ A.1.O.{ ~ ..a >.A _ F.H.!.I.%X}.'.m.=XfXZXUXUXUXUXUXUXUXUXUXUXUXUXUXUXUX",
"UXUXUXUXUXUXUXUXUXUXUXUXUXKXLX1X; ;.4XMXIX>XmXaXA s.%X7.l W.e 8.S G h #.I z 8.h B.S.G.[./.|.V.Y.;XvXUXUXUXUXUXUXUXUXUXUXUXUXUXUX",
"UXUXUXUXUXUXUXUXUXUXUXUXKXLXT.; }.0XAXCXz.9.MXfXy 1XcX| S !.E U ..&.s >.h t.Q S W.B ) G.L.S.|.V.c.).dXUXUXUXUXUXUXUXUXUXUXUXUXUX",
"UXUXUXUXUXUXUXUXUXUXUXJXKX>X- {.qXAXLXO.` I.t.2X/.l r....XP.( m.A.( ~ f.t._ ! ~ ,.X._ 6.0.{.d.'.p.u._.uXUXUXUXUXUXUXUXUXUXUXUXUX",
"UXUXUXUXUXUXUXUXUXUXFXLXkX; }.qXAXLXLX+Xv.0X~ t.FX-X6.0.v.] 6.' ! Y Q g R 0.7.#.X.` v.l B.).S.;.N.;.o.4.wXUXUXUXUXUXUXUXUXUXUXUX",
"UXUXUXUXUXUXUXUXUXSXHXAX; V.hXJXLXLXPXAXT.t.p.lX,XJ.K.oXOX|.{./.E.g.<...P s Q u.u.[ [ &.N.Z.^.f./ m.X.K _.>XUXUXUXUXUXUXUXUXUXUX",
"UXUXUXUXUXUXUXUXUXmXDXE | hXSXLXLXjX> jXlX$X9XJ.M.iXmXvXtX&X#X|.!.Q.j.k.B.h.%.T Y k.E f.:.e.b.W.;.^ d.X.#.XXUXUXUXUXUXUXUXUXUXUX",
"UXUXUXUXUXUXUXUXxXnXD.0 5XMXLXjXH.3.j.LXLX2XG.lXZXvXpXeX4X4X&X|. X~.N.k.f.f.E.1./ Y s.W.f.:.u.] m.+.O.s.o.5.T.UXUXUXUXUXUXUXUXUX",
"UXUXUXUXUXUXUXUXrX5X< S.wXSXKXV.L | IXLXT.H.KXZXdXuXtX5X4X4X7X&X#X'.Q.N.j.k.f.f.Q.&.Y m.!.i.^ ' 0.h.I 7.o.U ).UXUXUXUXUXUXUXUXUX",
"UXUXUXUXUXUXUXwX;XQ S 6XeXHXbX@.m.J JX1XU.LXZXdXsXuXyXeX7X4X7X4X#X}.~.!.N.N.k.N.f.Q.<.Y ~.<.E f.( ^ @./ 7./ $.F.UXUXUXUXUXUXUXUX",
"UXUXUXUXUXUXUX.XS., c.@XvXcXP.~.#.zXCXM.LXZXvXsXuXyXtXeX5X4X4X4X6X|. X~.Q.N.N.N.g.k.Q.f.! A.*.f.=.W :.J q.( L !.UXUXUXUXUXUXUXUX",
"UXUXUXUXUXUX1X_.h r Z.$XmX}.G p.Y.JXb.JXFXvXsXuXpXeXeX4X4X4X7X4X&X|.}. X!.!.!.N.Q.N.k.^.i.q.N.I o.E E C X.' P 3.x UXUXUXUXUXUXUX",
"UXUXUXUXUXUXL.>.1 R P.=X7XV.z.P 8X+X0XDXvXsXyXtXeX4X4X6X6X4X4X4X4X4X|.}.'.'.'.~.!.B.N.Q././ i.&.) 7.S K I l.^ } v.UXUXUXUXUXUXUX",
"UXUXUXUXUXUXg.F * 8.'.-X*Xj.i.j.3XI.BXvXsXuXtX7X4X&X6X*X4X7X7X7X7X5X6X#X#X#X{.{.Q.!.!.!.Q.f.^ k.U i.Q J b 0.u.n i.UXUXUXUXUXUXUX",
"UXUXUXUXUXUX>.3 1 L.C..XM.y.f.+XOX$XVXvXuXuXiXiXiXtX&X7XxXcXcXcXcXcXcXrX#X$X6X4X.X}. X'.{.#Xi.o.:.*.s H L H 6.I >.c UXUXUXUXUXUX",
"UXUXUXUXUXt.,.1 h b.f.~.=.( ..oX'.uXtXU.v.e.l.v.0.w.iX4Xe.] w.] 9.] w.8XdX.X0.] w.0.0.q.q.e.p.=.;.Y G S *.H W ^ Z l UXUXUXUXUXUX",
"UXUXUXUXUX6.>.r Q y.f.f.f.c.s.u.[.yXc.U E.B.g.k.>.t 0X=XL V L J K V 0 u lX=XL L <.h.N.B.(.Q y.=.*.! 7.A I U T H V j UXUXUXUXUXUX",
"UXUXUXUXUXy.L = Q 7.f.V.V.S.a.s.I.-XB.B.;.L.P.L.M.x.iX*X*.P ' A.M.A.*.: J.aX&.&.8.L.M.c.b.q.Q.=.^ @.O.Y K I ' ( V h UXUXUXUXUXUX",
"UXUXUXUXUXp./ = ! i.f.j.X.-.z.j.A.-XB.:.j 3X6X6X0XdXsX.X*.> [ VXMX~.#.6 J.dX;.+.l 6X@X].I.N.^./ G ..P s m M 0.6.b s UXUXUXUXUXUX",
"UXUXUXUXUX-.I 2 x.d.-.g.! H 8.O.I. XC.:.6.r.v.v.e.T.bX#X%.K h { t.I P ~ pXeX*.%.E ] 7.' ] /.!...F S i 9 m C Q ! Z s UXUXUXUXUXUX",
"UXUXUXUXUXi.P e L.s.;.<.i.x.O.P '.C.P.-X^.1.1.:.@.2 >XrX+./ #.n B +.D u NXrX&.%.E.f.g.B.T m.!.O.m | o.A 9 M h Y B i UXUXUXUXUXUX",
"UXUXUXUXUXS.f.3 l.p.;.d.g.Z.0.&.m./.y.n.b.M.n.I.C.L _ =X| m ! I.M.'.h.> G.sX@.| ' L.M.x.y.Q.E./ S >.-.t 8 8 s R M t UXUXUXUXUXUX",
"UXUXUXUXUX[./.5 X.d.V.N.~ | 8.X.j.{.|.m.b.M.L.m.<.&.` .X*.8 x bXxX6X| C W 4X<.F j eX$X].'.{.N.I A S m a B m Q ! b e UXUXUXUXUXUX",
"UXUXUXUXUXoXaX~ X.c.^.B.X.! O.S j./.7.9.q.e.e.X. .I W }.+.C s _ _ ! K C ! 4X*.U Y ] 6.6.] ` N.I M S t 5 8 M 9.( m r UXUXUXUXUXUX",
"UXUXUXUXUXJ.ZXa.8.].~.d.<.m.q.H d.N.S.!.!.B.g.g.C.I O.{.p.;.:.L K | f.F a.=Xf.j.k.*.f.j.W.S y.F U =.S < b F k A Z w UXUXUXUXUXUX",
"UXUXUXUXUXx DXY.u.<X XC.p.B.c.q.f.f.0.H.v.z.z.n.l.7.XXm.0.l.l.l.z.z.q.u.=X'.8.v.v.x.v.x.v.8.%.f o.<.d 8 M p u H K q UXUXUXUXUXUX",
"UXUXUXUXUXUXDXyXy.+XOX.Xm.Q -.a.X.p.f...-.p...i...C.~.V.m.C.C.N.S.~.I..X.X[.C.C.C.j.f.f.-.g.I F S 3 s A b i s P A # UXUXUXUXUXUX",
"UXUXUXUXUXUXNXZXz.b.&X-XC...e.c.E -.!.k.f.f.g.j.f.i.j.g.B.Q.B.C.~./.~.~.~.~.C.~.!.N.E.k.Q.B.D +.G A 4 8 b h Q K t X UXUXUXUXUXUX",
"UXUXUXUXUXUXT.HX+X..+X4X Xg.&.a.l...d.1.f.f.p.-.:.;.f.:.p.;.f.j.j.j.k.N.j.f.j.f.f.f.j.f.!.P S k.%.F 5 M f ` X.L w UXUXUXUXUXUXUX",
"UXUXUXUXUXUXUXZXgXZ.Y.4X*X'.;...6.a.7.N.<.;.-.;.;.-.;.-.| ..:.:.;.i.:.f.f.;.;.;.i.f.p.f.%.p I S ..p B M ( T U F # UXUXUXUXUXUXUX",
"UXUXUXUXUXUXUXrXZX3Xm.3X7X*Xi.h 8.v.o.7.Q.&.=.=.-.....%.| I %...%.%.%.p.:.-.;.;.i.;.<.<.2 K | e r s Z F W X.+.2 X UXUXUXUXUXUXUX",
"UXUXUXUXUXUXUX` BXhXZ.@X5XeX~...s.y.z.&.0.h.*.....O.K J I | I I ..| I | %.-.%.U / *.-., ~ 1./ / 4 8 K 6.e s.+.q UXUXUXUXUXUXUXUX",
"UXUXUXUXUXUXUXUXrXBX<XS.0XeX4XC.+.&.' v.P ` k.&.| ..| I | P F F J K I P U %...I *./ 1 F H ( 1.4 4 L ^ k 8.<.A X UXUXUXUXUXUXUXUX",
"UXUXUXUXUXUXUXUXl nXlXZ.oX0XeX4X;.s o.0.l.J h a.>. .| |  .M F F F J P I I K +.*.E 1 J *.9 s s p Z P h h C.Z q UXUXUXUXUXUXUXUXUX",
"UXUXUXUXUXUXUXUXUX-XVXhXi.+XtX=X'...( :.' c...p l u.;. .M M M F B F B K +.-.E r t / i.@.=.S < J  .' e S.*.g o UXUXUXUXUXUXUXUXUX",
"UXUXUXUXUXUXUXUXUXUXdXVX3Xs.+X6X&XS.K | ^ R v.;.b i h h d | J K U I ^ ~ Y u 5 b +.E r j.I 4 F +.q.e L.E.C + UXUXUXUXUXUXUXUXUXUX",
"UXUXUXUXUXUXUXUXUXUXl fXMX<X:.$X&X/.j.D Y 7.O.[ s...8 5 g r t a g a t e 5 b ..o.F / T e p *.+.a.a l.%X} q UXUXUXUXUXUXUXUXUXUXUX",
"UXUXUXUXUXUXUXUXUXUXUXr.fXMX<Xf.'.[.C.-.%.G %.F a 6.6.@.C H d i b f S Z C G d t f.^ F 6 U *.a.s l.-X} w   UXUXUXUXUXUXUXUXUXUXUX",
"UXUXUXUXUXUXUXUXUXUXUXUXK.fXMX<X| j.I.k.&.I N p ) | ) ) Z j { h 0 H j 6 ^ ( E s t 9 m %.=.O.S H.&X2.y   UXUXUXUXUXUXUXUXUXUXUXUX",
"UXUXUXUXUXUXUXUXUXUXUXUXUXv.:X0X8XI P m.m.f.P F ~ i 4 < K h z ) : , a 4 F E 9 9 < U ;.j.o.! T.7X4.g   UXUXUXUXUXUXUXUXUXUXUXUXUX",
"UXUXUXUXUXUXUXUXUXUXUXUXUXUXQ `.#X8Xu.; U s.j.-.b 8 4 M f z ~ 1 k 9.h 3 8 4 8 m ;.j.o.p u.8X%X4.u   UXUXUXUXUXUXUXUXUXUXUXUXUXUX",
"UXUXUXUXUXUXUXUXUXUXUXUXUXUXUXw ,.W.<XT.^ 0 J j.i.&.| K : h j * 7 F i : U U -.f.=.N ! T.0X_.@.q . UXUXUXUXUXUXUXUXUXUXUXUXUXUXUX",
"UXUXUXUXUXUXUXUXUXUXUXUXUXUXUXUX+ ~ $.XX3XT.( : : M P ^ o.m 9 P P F A ..I J m A ( T.<X/.$.E X UXUXUXUXUXUXUXUXUXUXUXUXUXUXUXUXUX",
"UXUXUXUXUXUXUXUXUXUXUXUXUXUXUXUXUXUX& F } ~.oXT.F.Q i - - 8 6 - : : 6 < p ' H.T.@X{.#.6 & . UXUXUXUXUXUXUXUXUXUXUXUXUXUXUXUXUXUX",
"UXUXUXUXUXUXUXUXUXUXUXUXUXUXUXUXUXUXUXUX% : V >.{.].R.U.v.e.w.w.r.r.n.U.U.].~.>.V < %   UXUXUXUXUXUXUXUXUXUXUXUXUXUXUXUXUXUXUXUX",
"UXUXUXUXUXUXUXUXUXUXUXUXUXUXUXUXUXUXUXUXUXUX+ $ - v Z @.f.j.S.c.c.C.i...K 0 7 $ +   UXUXUXUXUXUXUXUXUXUXUXUXUXUXUXUXUXUXUXUXUXUX",
"UXUXUXUXUXUXUXUXUXUXUXUXUXUXUXUXUXUXUXUXUXUXUXUXUXX O O $ $ $ $ $ $ $ O @ X . UXUXUXUXUXUXUXUXUXUXUXUXUXUXUXUXUXUXUXUXUXUXUXUXUX",
"UXUXUXUXUXUXUXUXUXUXUXUXUXUXUXUXUXUXUXUXUXUXUXUXUXUXUXUXUXUXUXUXUXUXUXUXUXUXUXUXUXUXUXUXUXUXUXUXUXUXUXUXUXUXUXUXUXUXUXUXUXUXUXUX",
"UXUXUXUXUXUXUXUXUXUXUXUXUXUXUXUXUXUXUXUXUXUXUXUXUXUXUXUXUXUXUXUXUXUXUXUXUXUXUXUXUXUXUXUXUXUXUXUXUXUXUXUXUXUXUXUXUXUXUXUXUXUXUXUX",
"UXUXUXUXUXUXUXUXUXUXUXUXUXUXUXUXUXUXUXUXUXUXUXUXUXUXUXUXUXUXUXUXUXUXUXUXUXUXUXUXUXUXUXUXUXUXUXUXUXUXUXUXUXUXUXUXUXUXUXUXUXUXUXUX",
"UXUXUXUXUXUXUXUXUXUXUXUXUXUXUXUXUXUXUXUXUXUXUXUXUXUXUXUXUXUXUXUXUXUXUXUXUXUXUXUXUXUXUXUXUXUXUXUXUXUXUXUXUXUXUXUXUXUXUXUXUXUXUXUX",
"UXUXUXUXUXUXUXUXUXUXUXUXUXUXUXUXUXUXUXUXUXUXUXUXUXUXUXUXUXUXUXUXUXUXUXUXUXUXUXUXUXUXUXUXUXUXUXUXUXUXUXUXUXUXUXUXUXUXUXUXUXUXUXUX",
"UXUXUXUXUXUXUXUXUXUXUXUXUXUXUXUXUXUXUXUXUXUXUXUXUXUXUXUXUXUXUXUXUXUXUXUXUXUXUXUXUXUXUXUXUXUXUXUXUXUXUXUXUXUXUXUXUXUXUXUXUXUXUXUX"
};
