/* XPM */
static char *_62b1aab71254fcdc587e1a1364b804d[] = {
/* columns rows colors chars-per-pixel */
"16 16 145 2 ",
"   c #473D1D",
".  c #483E1E",
"X  c #4A3F1E",
"o  c #6B581D",
"O  c #775E1B",
"+  c #7D610E",
"@  c #7B631B",
"#  c #7E651B",
"$  c #4E4424",
"%  c #4F4525",
"&  c #564C2C",
"*  c #6E5F30",
"=  c #7D6622",
"-  c #716029",
";  c #77652D",
":  c #7F6A28",
">  c #766736",
",  c #856914",
"<  c #81681D",
"1  c #856C1D",
"2  c #816A22",
"3  c #876E20",
"4  c #866D22",
"5  c #866D23",
"6  c #8C7326",
"7  c #88712A",
"8  c #8E762C",
"9  c #927627",
"0  c #957A27",
"q  c #927A2F",
"w  c #987E2D",
"e  c #877233",
"r  c #8B7631",
"t  c #867438",
"y  c #907934",
"u  c #997F31",
"i  c #937D38",
"p  c #917C3E",
"a  c #8A7B4A",
"s  c #967D41",
"d  c #9D8228",
"f  c #9D802A",
"g  c #9D812C",
"h  c #9C8233",
"j  c #9D8233",
"k  c #9F8533",
"l  c #998134",
"z  c #9E8534",
"x  c #9D8536",
"c  c #97813A",
"v  c #97813D",
"b  c #9C853B",
"n  c #9F863A",
"m  c #A0842D",
"M  c #BA972D",
"N  c #A38736",
"B  c #A88B36",
"V  c #A88C35",
"C  c #AA8E35",
"Z  c #A98D36",
"A  c #A1873A",
"S  c #A68C3A",
"D  c #A3893D",
"F  c #AB8E39",
"G  c #AA8F3F",
"H  c #AD923E",
"J  c #AD963D",
"K  c #9A8746",
"L  c #A18A41",
"P  c #A38A40",
"I  c #A58C40",
"U  c #A68C41",
"Y  c #A28B45",
"T  c #A38C48",
"R  c #A18E4C",
"E  c #A89347",
"W  c #A4904A",
"Q  c #A7914D",
"!  c #AB9449",
"~  c #AC9449",
"^  c #AD954B",
"/  c #AC964B",
"(  c #AF984C",
")  c #B19744",
"_  c #B29745",
"`  c #B19747",
"'  c #B69B4A",
"]  c #B2994D",
"[  c #B69D4D",
"{  c #B69D4F",
"}  c #AB9651",
"|  c #AB9654",
" . c #AB9754",
".. c #A8985B",
"X. c #B79F53",
"o. c #B29D56",
"O. c #BEA453",
"+. c #BDA556",
"@. c #BBA45B",
"#. c #BFA658",
"$. c #A49262",
"%. c #A29E6F",
"&. c #BFAC66",
"*. c #B9AA6E",
"=. c #C4A947",
"-. c #C0A54F",
";. c #C8AB4E",
":. c #C8AD56",
">. c #C1AA5C",
",. c #C1AA5E",
"<. c #C0AE6E",
"1. c #CFBA65",
"2. c #C6B36C",
"3. c #C4B36E",
"4. c #C9B66A",
"5. c #C7B877",
"6. c #CAB874",
"7. c #CEBB74",
"8. c #C2B47B",
"9. c #C1BB7B",
"0. c #DBC475",
"q. c #D9C67B",
"w. c #E5C76A",
"e. c #ECCF70",
"r. c #A6A385",
"t. c #BFB181",
"y. c #C6B780",
"u. c #C4B683",
"i. c #C6BB8D",
"p. c #C6B88F",
"a. c #C3BB9D",
"s. c #CCC089",
"d. c #DBCD89",
"f. c #E1CE83",
"g. c #F2DC8A",
"h. c #E2D999",
"j. c #F3E395",
"k. c #D7CDB6",
"l. c #E8DFB6",
"z. c #EFE2A1",
"x. c #FFF6AF",
"c. c #F1ECB9",
"v. c #FFFFB2",
"b. c LightYellow",
"n. c None",
/* pixels */
"n.n.n.n.n.n.n.n.n.n.n.n.n.n.n.n.",
"n.n.n.n.n.n.$.s <.l.n.n.n.n.n.n.",
"n.n.n.n.p.J , O + d 1.c.n.n.n.n.",
"n.n.n.p.t.8.*.L r t p =.0.n.n.n.",
"n.n.s.y.k.a.h.q.' h v Y M a n.n.",
"n.n.E 4.y.b.j.z.f.:.O.U q Z n.n.",
"n.; h +.d.7.6.3.5.2.@.] 8 Z n.n.",
"n.: u ( { T &.l K ! W O.6 g X n.",
"n...` n o. .D Q R /  ./ < 0   n.",
"n.r.g.x U _ _ { +.>.O.A @ w n.n.",
"n.n.x.,.y U m w Z F N 4 9 c n.n.",
"n.n.%.v.U e y 1 3 7 = 4 ;.  n.n.",
"n.n.n.9.e.m 2 - o < S w.> n.n.n.",
"n.n.n.n.* / B x z H } & n.n.n.n.",
"n.n.n.n.n.n.n.$ $ n.n.n.n.n.n.n.",
"n.n.n.n.n.n.n.n.n.n.n.n.n.n.n.n."
};
